STARTFONT 2.1
COMMENT Sometype Mono Bold - cellule resserree 14x25
COMMENT Pixels isoles nettoyes. Police du volume d'archive.
FONT -SometypeMono-Bold-R-Normal--25-0-0-0-C-140-ISO10646-1
SIZE 24 72 72
FONTBOUNDINGBOX 14 25 0 -5
STARTPROPERTIES 2
FONT_ASCENT 20
FONT_DESCENT 5
ENDPROPERTIES
CHARS 97
STARTCHAR U+0020
ENCODING 32
SWIDTH 583 0
DWIDTH 14 0
BBX 14 25 0 -5
BITMAP
0000
0000
0000
0000
0000
0000
0000
0000
0000
0000
0000
0000
0000
0000
0000
0000
0000
0000
0000
0000
0000
0000
0000
0000
0000
ENDCHAR
STARTCHAR U+0021
ENCODING 33
SWIDTH 583 0
DWIDTH 14 0
BBX 14 25 0 -5
BITMAP
0000
0000
0000
0000
0780
0780
0780
0300
0300
0300
0300
0300
0300
0200
0000
0000
0300
0780
0780
0300
0000
0000
0000
0000
0000
ENDCHAR
STARTCHAR U+0022
ENCODING 34
SWIDTH 583 0
DWIDTH 14 0
BBX 14 25 0 -5
BITMAP
0000
0000
0000
0000
3CE0
1CE0
1860
1860
1860
1860
1860
0000
0000
0000
0000
0000
0000
0000
0000
0000
0000
0000
0000
0000
0000
ENDCHAR
STARTCHAR U+0023
ENCODING 35
SWIDTH 583 0
DWIDTH 14 0
BBX 14 25 0 -5
BITMAP
0000
0000
0000
0000
0670
0660
0E60
0C60
3FF8
7FF8
0CE0
0CC0
0CC0
18C0
7FF0
7FF0
18C0
1980
1980
3180
0000
0000
0000
0000
0000
ENDCHAR
STARTCHAR U+0024
ENCODING 36
SWIDTH 583 0
DWIDTH 14 0
BBX 14 25 0 -5
BITMAP
0000
0000
0000
0300
0300
0300
1FF0
3FF0
3F60
3300
3B00
3F00
3FE0
0FF0
03F8
0338
2338
3FF0
7FF0
1FC0
0300
0300
0000
0000
0000
ENDCHAR
STARTCHAR U+0025
ENCODING 37
SWIDTH 583 0
DWIDTH 14 0
BBX 14 25 0 -5
BITMAP
0000
0000
0000
0000
3C08
7E1C
6638
C630
C660
66C0
7CC0
3800
0070
0DF8
0D98
199C
319C
7198
E1F8
40F0
0000
0000
0000
0000
0000
ENDCHAR
STARTCHAR U+0026
ENCODING 38
SWIDTH 583 0
DWIDTH 14 0
BBX 14 25 0 -5
BITMAP
0000
0000
0000
0000
1F00
3F80
3FC0
71C0
71C0
71C0
3F80
1F20
3E38
7F70
E7F0
E3E0
E1E0
7FF0
7FF8
3E3C
0000
0000
0000
0000
0000
ENDCHAR
STARTCHAR U+0027
ENCODING 39
SWIDTH 583 0
DWIDTH 14 0
BBX 14 25 0 -5
BITMAP
0000
0000
0000
0000
0780
0780
0700
0300
0300
0300
0300
0300
0300
0000
0000
0000
0000
0000
0000
0000
0000
0000
0000
0000
0000
ENDCHAR
STARTCHAR U+0028
ENCODING 40
SWIDTH 583 0
DWIDTH 14 0
BBX 14 25 0 -5
BITMAP
0000
0000
0000
0060
01E0
0380
0700
0600
0E00
0C00
0C00
1C00
1C00
1C00
1C00
1C00
1C00
0C00
0C00
0E00
0600
0700
0380
01E0
0060
ENDCHAR
STARTCHAR U+0029
ENCODING 41
SWIDTH 583 0
DWIDTH 14 0
BBX 14 25 0 -5
BITMAP
0000
0000
0000
1800
1E00
0700
0380
0180
01C0
00C0
00C0
00E0
00E0
00E0
00E0
00E0
00E0
00C0
00C0
01C0
0180
0380
0700
1E00
1800
ENDCHAR
STARTCHAR U+002A
ENCODING 42
SWIDTH 583 0
DWIDTH 14 0
BBX 14 25 0 -5
BITMAP
0000
0000
0000
0000
0000
0000
0000
0300
0300
2310
7B78
3FF0
0FC0
0FC0
3FF0
7B78
2310
0300
0300
0000
0000
0000
0000
0000
0000
ENDCHAR
STARTCHAR U+002B
ENCODING 43
SWIDTH 583 0
DWIDTH 14 0
BBX 14 25 0 -5
BITMAP
0000
0000
0000
0000
0000
0000
0000
0300
0300
0300
0300
0300
7FF8
7FF8
7FF8
0300
0300
0300
0300
0000
0000
0000
0000
0000
0000
ENDCHAR
STARTCHAR U+002C
ENCODING 44
SWIDTH 583 0
DWIDTH 14 0
BBX 14 25 0 -5
BITMAP
0000
0000
0000
0000
0000
0000
0000
0000
0000
0000
0000
0000
0000
0000
0000
0000
0300
0780
0780
0780
0180
0300
0300
0E00
0800
ENDCHAR
STARTCHAR U+002D
ENCODING 45
SWIDTH 583 0
DWIDTH 14 0
BBX 14 25 0 -5
BITMAP
0000
0000
0000
0000
0000
0000
0000
0000
0000
0000
0000
3FF0
3FF0
3FF0
0000
0000
0000
0000
0000
0000
0000
0000
0000
0000
0000
ENDCHAR
STARTCHAR U+002E
ENCODING 46
SWIDTH 583 0
DWIDTH 14 0
BBX 14 25 0 -5
BITMAP
0000
0000
0000
0000
0000
0000
0000
0000
0000
0000
0000
0000
0000
0000
0000
0000
0300
0780
0780
0300
0000
0000
0000
0000
0000
ENDCHAR
STARTCHAR U+002F
ENCODING 47
SWIDTH 583 0
DWIDTH 14 0
BBX 14 25 0 -5
BITMAP
0000
0000
0000
0038
0030
0070
0060
00E0
00C0
01C0
0180
0380
0300
0700
0600
0E00
0C00
1C00
1800
3800
3000
7000
0000
0000
0000
ENDCHAR
STARTCHAR U+0030
ENCODING 48
SWIDTH 583 0
DWIDTH 14 0
BBX 14 25 0 -5
BITMAP
0000
0000
0000
0000
0F80
1FE0
3FF0
3870
7070
70F8
71F8
73B8
7738
7E38
7C38
7870
3870
3FF0
1FE0
0F80
0000
0000
0000
0000
0000
ENDCHAR
STARTCHAR U+0031
ENCODING 49
SWIDTH 583 0
DWIDTH 14 0
BBX 14 25 0 -5
BITMAP
0000
0000
0000
0000
0300
0700
0F00
1F00
3F00
7B00
3300
0300
0300
0300
0300
0300
0300
7FF8
7FF8
7FF8
0000
0000
0000
0000
0000
ENDCHAR
STARTCHAR U+0032
ENCODING 50
SWIDTH 583 0
DWIDTH 14 0
BBX 14 25 0 -5
BITMAP
0000
0000
0000
0000
0FC0
7FE0
3FF0
3070
0070
0070
00F0
07F0
1FE0
1F80
3C00
3800
3800
3FF0
3FF0
3FF0
0000
0000
0000
0000
0000
ENDCHAR
STARTCHAR U+0033
ENCODING 51
SWIDTH 583 0
DWIDTH 14 0
BBX 14 25 0 -5
BITMAP
0000
0000
0000
0000
0FC0
7FE0
3FF0
2070
0070
0070
0FE0
0FE0
0FF0
0070
0038
0070
00F0
7FF0
7FE0
7F00
0000
0000
0000
0000
0000
ENDCHAR
STARTCHAR U+0034
ENCODING 52
SWIDTH 583 0
DWIDTH 14 0
BBX 14 25 0 -5
BITMAP
0000
0000
0000
0000
03C0
0380
0700
0700
0E20
1E60
1CE0
3CE0
38E0
70E0
7FF8
7FF8
7FF8
00E0
00E0
00E0
0000
0000
0000
0000
0000
ENDCHAR
STARTCHAR U+0035
ENCODING 53
SWIDTH 583 0
DWIDTH 14 0
BBX 14 25 0 -5
BITMAP
0000
0000
0000
0000
1FF0
1FF0
3FF0
3800
3800
3800
3FC0
3FF0
3FF0
0870
0030
0070
00F0
7FE0
7FC0
7F00
0000
0000
0000
0000
0000
ENDCHAR
STARTCHAR U+0036
ENCODING 54
SWIDTH 583 0
DWIDTH 14 0
BBX 14 25 0 -5
BITMAP
0000
0000
0000
0000
01F0
07F0
0FF0
1E00
3C00
3980
37E0
7FF0
7870
7038
7038
3838
3870
3FF0
1FE0
07C0
0000
0000
0000
0000
0000
ENDCHAR
STARTCHAR U+0037
ENCODING 55
SWIDTH 583 0
DWIDTH 14 0
BBX 14 25 0 -5
BITMAP
0000
0000
0000
0000
7FF8
7FF8
7FF8
0070
00E0
01E0
01C0
0380
0380
0700
0700
0700
0E00
0E00
0E00
1E00
0000
0000
0000
0000
0000
ENDCHAR
STARTCHAR U+0038
ENCODING 56
SWIDTH 583 0
DWIDTH 14 0
BBX 14 25 0 -5
BITMAP
0000
0000
0000
0000
0FC0
1FE0
3FF0
3870
3070
3870
3FF0
1FC0
3FF0
38F8
7038
7038
7038
3FF0
3FF0
0FC0
0000
0000
0000
0000
0000
ENDCHAR
STARTCHAR U+0039
ENCODING 57
SWIDTH 583 0
DWIDTH 14 0
BBX 14 25 0 -5
BITMAP
0000
0000
0000
0000
0F80
1FE0
3FF0
7870
7070
7038
7038
78F8
3FF8
1FF0
0670
00F0
01E0
3FC0
3F80
3E00
0000
0000
0000
0000
0000
ENDCHAR
STARTCHAR U+003A
ENCODING 58
SWIDTH 583 0
DWIDTH 14 0
BBX 14 25 0 -5
BITMAP
0000
0000
0000
0000
0000
0000
0000
0000
0300
0780
0780
0300
0000
0000
0000
0000
0300
0780
0780
0300
0000
0000
0000
0000
0000
ENDCHAR
STARTCHAR U+003B
ENCODING 59
SWIDTH 583 0
DWIDTH 14 0
BBX 14 25 0 -5
BITMAP
0000
0000
0000
0000
0000
0000
0000
0000
0300
0780
0780
0300
0000
0000
0000
0000
0300
0780
0780
0780
0180
0300
0300
0E00
0800
ENDCHAR
STARTCHAR U+003C
ENCODING 60
SWIDTH 583 0
DWIDTH 14 0
BBX 14 25 0 -5
BITMAP
0000
0000
0000
0000
0000
0000
0000
0030
0070
01E0
07C0
0F00
3C00
3800
3E00
0F80
03C0
00F0
0070
0010
0000
0000
0000
0000
0000
ENDCHAR
STARTCHAR U+003D
ENCODING 61
SWIDTH 583 0
DWIDTH 14 0
BBX 14 25 0 -5
BITMAP
0000
0000
0000
0000
0000
0000
0000
0000
0000
7FF0
7FF0
7FF0
0000
0000
7FF0
7FF0
7FF0
0000
0000
0000
0000
0000
0000
0000
0000
ENDCHAR
STARTCHAR U+003E
ENCODING 62
SWIDTH 583 0
DWIDTH 14 0
BBX 14 25 0 -5
BITMAP
0000
0000
0000
0000
0000
0000
0000
3000
3800
1E00
0F80
03C0
00F0
0070
01E0
07C0
0F00
3C00
3800
2000
0000
0000
0000
0000
0000
ENDCHAR
STARTCHAR U+003F
ENCODING 63
SWIDTH 583 0
DWIDTH 14 0
BBX 14 25 0 -5
BITMAP
0000
0000
0000
0000
0FC0
3FF0
7FF0
3030
0038
00F0
03F0
07C0
0600
0600
0000
0000
0700
0700
0F00
0700
0000
0000
0000
0000
0000
ENDCHAR
STARTCHAR U+0040
ENCODING 64
SWIDTH 583 0
DWIDTH 14 0
BBX 14 25 0 -5
BITMAP
0000
0000
0000
0000
07C0
1FF0
3FF8
3838
7018
6018
63F8
67F8
EE18
EE18
6FF8
67F8
63D8
7000
3810
3FF0
1FF0
07C0
0000
0000
0000
ENDCHAR
STARTCHAR U+0041
ENCODING 65
SWIDTH 583 0
DWIDTH 14 0
BBX 14 25 0 -5
BITMAP
0000
0000
0000
0000
0780
0780
0780
0FC0
0FC0
0DC0
1CE0
1CE0
1CE0
38F0
3FF0
3FF0
7FF0
7038
7038
E03C
0000
0000
0000
0000
0000
ENDCHAR
STARTCHAR U+0042
ENCODING 66
SWIDTH 583 0
DWIDTH 14 0
BBX 14 25 0 -5
BITMAP
0000
0000
0000
0000
3FC0
3FF0
3FF0
3870
3870
3870
3FF0
3FC0
3FF0
3870
3838
3838
3838
3FF0
3FF0
3FC0
0000
0000
0000
0000
0000
ENDCHAR
STARTCHAR U+0043
ENCODING 67
SWIDTH 583 0
DWIDTH 14 0
BBX 14 25 0 -5
BITMAP
0000
0000
0000
0000
07E0
0FF0
1FF0
3C20
3800
3800
7000
7000
7000
7000
3800
3800
3C30
1FF8
0FF0
07E0
0000
0000
0000
0000
0000
ENDCHAR
STARTCHAR U+0044
ENCODING 68
SWIDTH 583 0
DWIDTH 14 0
BBX 14 25 0 -5
BITMAP
0000
0000
0000
0000
3F80
3FC0
3FE0
38F0
3870
3838
3838
3838
3838
3838
3838
3870
38F0
3FE0
3FE0
3F80
0000
0000
0000
0000
0000
ENDCHAR
STARTCHAR U+0045
ENCODING 69
SWIDTH 583 0
DWIDTH 14 0
BBX 14 25 0 -5
BITMAP
0000
0000
0000
0000
3FF0
3FF0
3FF0
3800
3800
3800
3FE0
3FE0
3FE0
3800
3800
3800
3800
3FF0
3FF0
3FF0
0000
0000
0000
0000
0000
ENDCHAR
STARTCHAR U+0046
ENCODING 70
SWIDTH 583 0
DWIDTH 14 0
BBX 14 25 0 -5
BITMAP
0000
0000
0000
0000
3FF8
3FF8
3FF8
3800
3800
3800
3800
3FE0
3FE0
3FE0
3800
3800
3800
3800
3800
3800
0000
0000
0000
0000
0000
ENDCHAR
STARTCHAR U+0047
ENCODING 71
SWIDTH 583 0
DWIDTH 14 0
BBX 14 25 0 -5
BITMAP
0000
0000
0000
0000
07C0
1FF0
3FF0
3820
3800
7000
71F8
71F8
71F8
7038
7038
3838
3838
3FF8
1FF8
0798
0000
0000
0000
0000
0000
ENDCHAR
STARTCHAR U+0048
ENCODING 72
SWIDTH 583 0
DWIDTH 14 0
BBX 14 25 0 -5
BITMAP
0000
0000
0000
0000
3070
3070
3070
3070
3070
3070
3FF0
3FF0
3FF0
3070
3070
3070
3070
3070
3070
3070
0000
0000
0000
0000
0000
ENDCHAR
STARTCHAR U+0049
ENCODING 73
SWIDTH 583 0
DWIDTH 14 0
BBX 14 25 0 -5
BITMAP
0000
0000
0000
0000
3FF0
3FF0
3FF0
0300
0300
0300
0300
0300
0300
0300
0300
0300
0300
3FF0
3FF0
3FF0
0000
0000
0000
0000
0000
ENDCHAR
STARTCHAR U+004A
ENCODING 74
SWIDTH 583 0
DWIDTH 14 0
BBX 14 25 0 -5
BITMAP
0000
0000
0000
0000
0FF0
0FF0
0FF0
0070
0070
0070
0070
0070
0070
0070
0070
0070
30F0
7FE0
3FE0
1F80
0000
0000
0000
0000
0000
ENDCHAR
STARTCHAR U+004B
ENCODING 75
SWIDTH 583 0
DWIDTH 14 0
BBX 14 25 0 -5
BITMAP
0000
0000
0000
0000
3078
3070
30E0
31E0
33C0
3380
3700
3F80
3FC0
3DC0
39E0
30E0
30F0
3070
3078
303C
0000
0000
0000
0000
0000
ENDCHAR
STARTCHAR U+004C
ENCODING 76
SWIDTH 583 0
DWIDTH 14 0
BBX 14 25 0 -5
BITMAP
0000
0000
0000
0000
3800
3800
3800
3800
3800
3800
3800
3800
3800
3800
3800
3800
3800
3FF8
3FF8
3FF8
0000
0000
0000
0000
0000
ENDCHAR
STARTCHAR U+004D
ENCODING 77
SWIDTH 583 0
DWIDTH 14 0
BBX 14 25 0 -5
BITMAP
0000
0000
0000
0000
7878
7878
78F8
7CF8
7CF8
7CF8
7DB8
77B8
77B8
77B8
7738
7338
7338
7038
7038
7038
0000
0000
0000
0000
0000
ENDCHAR
STARTCHAR U+004E
ENCODING 78
SWIDTH 583 0
DWIDTH 14 0
BBX 14 25 0 -5
BITMAP
0000
0000
0000
0000
3830
3830
3C30
3C30
3E30
3630
3730
3330
33B0
31B0
31F0
30F0
30F0
30F0
3070
3070
0000
0000
0000
0000
0000
ENDCHAR
STARTCHAR U+004F
ENCODING 79
SWIDTH 583 0
DWIDTH 14 0
BBX 14 25 0 -5
BITMAP
0000
0000
0000
0000
0FC0
1FE0
3FF0
3870
7038
7038
7038
7038
7038
7038
7038
7038
3870
3FF0
1FE0
0FC0
0000
0000
0000
0000
0000
ENDCHAR
STARTCHAR U+0050
ENCODING 80
SWIDTH 583 0
DWIDTH 14 0
BBX 14 25 0 -5
BITMAP
0000
0000
0000
0000
3FC0
3FF0
3FF0
3838
3838
3838
3878
3FF0
3FF0
3FC0
3800
3800
3800
3800
3800
3800
0000
0000
0000
0000
0000
ENDCHAR
STARTCHAR U+0051
ENCODING 81
SWIDTH 583 0
DWIDTH 14 0
BBX 14 25 0 -5
BITMAP
0000
0000
0000
0000
0FC0
1FE0
3FF0
3870
7038
7038
7038
7038
7038
7038
7038
7038
3870
3FF0
1FE0
0F80
0380
0380
03F8
01FC
00F8
ENDCHAR
STARTCHAR U+0052
ENCODING 82
SWIDTH 583 0
DWIDTH 14 0
BBX 14 25 0 -5
BITMAP
0000
0000
0000
0000
3FC0
3FE0
3FF0
3870
3830
3870
3870
3FF0
3FE0
3FC0
39C0
39E0
38E0
3870
3870
3838
0000
0000
0000
0000
0000
ENDCHAR
STARTCHAR U+0053
ENCODING 83
SWIDTH 583 0
DWIDTH 14 0
BBX 14 25 0 -5
BITMAP
0000
0000
0000
0000
0FC0
1FF0
3FF0
3820
3800
3800
3F00
1FE0
0FF0
00F0
0078
0038
3070
7FF0
3FE0
0FC0
0000
0000
0000
0000
0000
ENDCHAR
STARTCHAR U+0054
ENCODING 84
SWIDTH 583 0
DWIDTH 14 0
BBX 14 25 0 -5
BITMAP
0000
0000
0000
0000
7FF8
7FF8
7FF8
0300
0300
0300
0300
0300
0300
0300
0300
0300
0300
0300
0300
0300
0000
0000
0000
0000
0000
ENDCHAR
STARTCHAR U+0055
ENCODING 85
SWIDTH 583 0
DWIDTH 14 0
BBX 14 25 0 -5
BITMAP
0000
0000
0000
0000
3030
3030
3030
3030
3030
3030
3030
3030
3030
3030
3030
3870
3870
3FF0
1FE0
0FC0
0000
0000
0000
0000
0000
ENDCHAR
STARTCHAR U+0056
ENCODING 86
SWIDTH 583 0
DWIDTH 14 0
BBX 14 25 0 -5
BITMAP
0000
0000
0000
0000
7038
7038
7038
3870
3870
3870
1C60
1CE0
1CE0
1CC0
0FC0
0FC0
0FC0
0780
0780
0780
0000
0000
0000
0000
0000
ENDCHAR
STARTCHAR U+0057
ENCODING 87
SWIDTH 583 0
DWIDTH 14 0
BBX 14 25 0 -5
BITMAP
0000
0000
0000
0000
E01C
E01C
E31C
6318
6798
6798
77B8
77B8
77B8
7CF0
3CF0
3CF0
3CF0
3CF0
3870
3870
0000
0000
0000
0000
0000
ENDCHAR
STARTCHAR U+0058
ENCODING 88
SWIDTH 583 0
DWIDTH 14 0
BBX 14 25 0 -5
BITMAP
0000
0000
0000
0000
7838
3870
3C70
1CE0
1FE0
0FC0
0780
0780
0780
0FC0
0FC0
1DE0
1CE0
38F0
3870
7038
0000
0000
0000
0000
0000
ENDCHAR
STARTCHAR U+0059
ENCODING 89
SWIDTH 583 0
DWIDTH 14 0
BBX 14 25 0 -5
BITMAP
0000
0000
0000
0000
F03C
7038
3870
3C70
1CE0
1FE0
0FC0
0780
0780
0300
0300
0300
0300
0300
0300
0300
0000
0000
0000
0000
0000
ENDCHAR
STARTCHAR U+005A
ENCODING 90
SWIDTH 583 0
DWIDTH 14 0
BBX 14 25 0 -5
BITMAP
0000
0000
0000
0000
3FF0
3FF0
3FF0
00E0
01E0
01C0
03C0
0380
0700
0F00
0E00
1C00
3C00
3FF0
7FF0
7FF0
0000
0000
0000
0000
0000
ENDCHAR
STARTCHAR U+005B
ENCODING 91
SWIDTH 583 0
DWIDTH 14 0
BBX 14 25 0 -5
BITMAP
0000
0000
0000
0FE0
0FE0
0FE0
0C00
0C00
0C00
0C00
0C00
0C00
0C00
0C00
0C00
0C00
0C00
0C00
0C00
0C00
0C00
0C00
0FE0
0FE0
0FE0
ENDCHAR
STARTCHAR U+005C
ENCODING 92
SWIDTH 583 0
DWIDTH 14 0
BBX 14 25 0 -5
BITMAP
0000
0000
0000
7000
3000
3800
1800
1C00
0C00
0E00
0600
0700
0300
0380
0180
01C0
00C0
00E0
0060
0070
0030
0038
0000
0000
0000
ENDCHAR
STARTCHAR U+005D
ENCODING 93
SWIDTH 583 0
DWIDTH 14 0
BBX 14 25 0 -5
BITMAP
0000
0000
0000
1FC0
1FC0
1FC0
00C0
00C0
00C0
00C0
00C0
00C0
00C0
00C0
00C0
00C0
00C0
00C0
00C0
00C0
00C0
00C0
1FC0
1FC0
1FC0
ENDCHAR
STARTCHAR U+005E
ENCODING 94
SWIDTH 583 0
DWIDTH 14 0
BBX 14 25 0 -5
BITMAP
0000
0000
0000
0000
0300
0780
0780
0FC0
1CC0
1CE0
3870
3030
7038
0000
0000
0000
0000
0000
0000
0000
0000
0000
0000
0000
0000
ENDCHAR
STARTCHAR U+005F
ENCODING 95
SWIDTH 583 0
DWIDTH 14 0
BBX 14 25 0 -5
BITMAP
0000
0000
0000
0000
0000
0000
0000
0000
0000
0000
0000
0000
0000
0000
0000
0000
0000
0000
0000
0000
0000
FFFC
FFFC
FFFC
0000
ENDCHAR
STARTCHAR U+0060
ENCODING 96
SWIDTH 583 0
DWIDTH 14 0
BBX 14 25 0 -5
BITMAP
0000
0000
0400
0E00
0700
0380
0100
0000
0000
0000
0000
0000
0000
0000
0000
0000
0000
0000
0000
0000
0000
0000
0000
0000
0000
ENDCHAR
STARTCHAR U+0061
ENCODING 97
SWIDTH 583 0
DWIDTH 14 0
BBX 14 25 0 -5
BITMAP
0000
0000
0000
0000
0000
0000
0000
0000
0FC0
3FE0
3FF0
0070
0FF0
3FF0
3FF0
7070
7070
3FF0
3FF0
1F30
0000
0000
0000
0000
0000
ENDCHAR
STARTCHAR U+0062
ENCODING 98
SWIDTH 583 0
DWIDTH 14 0
BBX 14 25 0 -5
BITMAP
0000
0000
0000
3800
3800
3800
3800
3800
3BC0
3FE0
3FF0
3870
3838
3838
3838
3838
3870
3FF0
3FE0
37C0
0000
0000
0000
0000
0000
ENDCHAR
STARTCHAR U+0063
ENCODING 99
SWIDTH 583 0
DWIDTH 14 0
BBX 14 25 0 -5
BITMAP
0000
0000
0000
0000
0000
0000
0000
0000
07E0
0FF0
1FE0
3C20
3800
3800
3800
3800
3C10
1FF0
0FF0
07E0
0000
0000
0000
0000
0000
ENDCHAR
STARTCHAR U+0064
ENCODING 100
SWIDTH 583 0
DWIDTH 14 0
BBX 14 25 0 -5
BITMAP
0000
0000
0000
0070
0070
0070
0070
0070
0F70
1FF0
3FF0
3870
7070
7070
7070
7070
3870
3FF0
1FF0
0FB0
0000
0000
0000
0000
0000
ENDCHAR
STARTCHAR U+0065
ENCODING 101
SWIDTH 583 0
DWIDTH 14 0
BBX 14 25 0 -5
BITMAP
0000
0000
0000
0000
0000
0000
0000
0000
07C0
1FE0
3FF0
3870
7FF8
7FF8
7FF8
7000
3810
3FF0
1FF0
07C0
0000
0000
0000
0000
0000
ENDCHAR
STARTCHAR U+0066
ENCODING 102
SWIDTH 583 0
DWIDTH 14 0
BBX 14 25 0 -5
BITMAP
0000
0000
0000
01F8
03FC
07F8
0700
0700
3FF0
3FF0
3FF0
0700
0700
0700
0700
0700
0700
0700
0700
0700
0000
0000
0000
0000
0000
ENDCHAR
STARTCHAR U+0067
ENCODING 103
SWIDTH 583 0
DWIDTH 14 0
BBX 14 25 0 -5
BITMAP
0000
0000
0000
0000
0000
0000
0000
0000
0FB0
1FF0
3FF0
3870
7070
7070
7070
7070
3870
3FF0
1FF0
0F70
0070
2070
3FF0
3FE0
1F80
ENDCHAR
STARTCHAR U+0068
ENCODING 104
SWIDTH 583 0
DWIDTH 14 0
BBX 14 25 0 -5
BITMAP
0000
0000
0000
3800
3800
3800
3800
3800
3BC0
3FE0
3FF0
3870
3870
3870
3870
3870
3870
3870
3870
3870
0000
0000
0000
0000
0000
ENDCHAR
STARTCHAR U+0069
ENCODING 105
SWIDTH 583 0
DWIDTH 14 0
BBX 14 25 0 -5
BITMAP
0000
0000
0700
0780
0780
0700
0000
0000
7F00
7F00
7F00
0300
0300
0300
0300
0300
0300
03F8
03F8
03F8
0000
0000
0000
0000
0000
ENDCHAR
STARTCHAR U+006A
ENCODING 106
SWIDTH 583 0
DWIDTH 14 0
BBX 14 25 0 -5
BITMAP
0000
0000
01C0
01C0
01C0
01C0
0000
0000
1FC0
1FC0
1FC0
01C0
01C0
01C0
01C0
01C0
01C0
01C0
01C0
01C0
01C0
41C0
7FC0
7F80
3F00
ENDCHAR
STARTCHAR U+006B
ENCODING 107
SWIDTH 583 0
DWIDTH 14 0
BBX 14 25 0 -5
BITMAP
0000
0000
0000
3800
3800
3800
3800
3800
3878
38F0
39E0
3BC0
3F80
3F80
3FC0
3DC0
39E0
38F0
3870
3838
0000
0000
0000
0000
0000
ENDCHAR
STARTCHAR U+006C
ENCODING 108
SWIDTH 583 0
DWIDTH 14 0
BBX 14 25 0 -5
BITMAP
0000
0000
0000
7F00
7F00
7F00
0700
0700
0700
0700
0700
0700
0700
0700
0700
0700
0700
07F8
03F8
01F0
0000
0000
0000
0000
0000
ENDCHAR
STARTCHAR U+006D
ENCODING 109
SWIDTH 583 0
DWIDTH 14 0
BBX 14 25 0 -5
BITMAP
0000
0000
0000
0000
0000
0000
0000
0000
6E70
7FF8
7FF8
7318
7318
7318
7318
7318
7318
7318
7318
7318
0000
0000
0000
0000
0000
ENDCHAR
STARTCHAR U+006E
ENCODING 110
SWIDTH 583 0
DWIDTH 14 0
BBX 14 25 0 -5
BITMAP
0000
0000
0000
0000
0000
0000
0000
0000
37C0
3FE0
3FF0
3870
3870
3870
3870
3870
3870
3870
3870
3870
0000
0000
0000
0000
0000
ENDCHAR
STARTCHAR U+006F
ENCODING 111
SWIDTH 583 0
DWIDTH 14 0
BBX 14 25 0 -5
BITMAP
0000
0000
0000
0000
0000
0000
0000
0000
0F80
1FE0
3FF0
3870
7038
7038
7038
7038
3870
3FF0
1FE0
0FC0
0000
0000
0000
0000
0000
ENDCHAR
STARTCHAR U+0070
ENCODING 112
SWIDTH 583 0
DWIDTH 14 0
BBX 14 25 0 -5
BITMAP
0000
0000
0000
0000
0000
0000
0000
0000
37C0
3FE0
3FF0
3870
3838
3838
3838
3838
3870
3FF0
3FE0
3FC0
3800
3800
3800
3800
3800
ENDCHAR
STARTCHAR U+0071
ENCODING 113
SWIDTH 583 0
DWIDTH 14 0
BBX 14 25 0 -5
BITMAP
0000
0000
0000
0000
0000
0000
0000
0000
0FB0
1FF0
3FF0
3870
7070
7070
7070
7070
3870
3FF0
1FF0
0F70
0070
0070
0070
0070
0070
ENDCHAR
STARTCHAR U+0072
ENCODING 114
SWIDTH 583 0
DWIDTH 14 0
BBX 14 25 0 -5
BITMAP
0000
0000
0000
0000
0000
0000
0000
0000
19F0
1FF0
1FF0
1E00
1C00
1800
1800
1800
1800
1800
1800
1800
0000
0000
0000
0000
0000
ENDCHAR
STARTCHAR U+0073
ENCODING 115
SWIDTH 583 0
DWIDTH 14 0
BBX 14 25 0 -5
BITMAP
0000
0000
0000
0000
0000
0000
0000
0000
0FC0
1FF0
3FF0
3820
3800
3FE0
0FF0
0070
2070
3FF0
7FE0
0FC0
0000
0000
0000
0000
0000
ENDCHAR
STARTCHAR U+0074
ENCODING 116
SWIDTH 583 0
DWIDTH 14 0
BBX 14 25 0 -5
BITMAP
0000
0000
0000
0000
0600
0E00
0E00
0E00
7FF0
7FF0
7FF0
0E00
0E00
0E00
0E00
0E00
0700
07F0
07F8
03F0
0000
0000
0000
0000
0000
ENDCHAR
STARTCHAR U+0075
ENCODING 117
SWIDTH 583 0
DWIDTH 14 0
BBX 14 25 0 -5
BITMAP
0000
0000
0000
0000
0000
0000
0000
0000
3870
3870
3870
3870
3870
3870
3870
3870
3870
3FF0
1FF0
0FB0
0000
0000
0000
0000
0000
ENDCHAR
STARTCHAR U+0076
ENCODING 118
SWIDTH 583 0
DWIDTH 14 0
BBX 14 25 0 -5
BITMAP
0000
0000
0000
0000
0000
0000
0000
0000
7038
3830
3870
3870
1CE0
1CE0
1CC0
0FC0
0FC0
0780
0780
0780
0000
0000
0000
0000
0000
ENDCHAR
STARTCHAR U+0077
ENCODING 119
SWIDTH 583 0
DWIDTH 14 0
BBX 14 25 0 -5
BITMAP
0000
0000
0000
0000
0000
0000
0000
0000
E01C
E31C
6318
6398
7798
77B8
77B0
34F0
3CF0
3CF0
3CF0
1860
0000
0000
0000
0000
0000
ENDCHAR
STARTCHAR U+0078
ENCODING 120
SWIDTH 583 0
DWIDTH 14 0
BBX 14 25 0 -5
BITMAP
0000
0000
0000
0000
0000
0000
0000
0000
7878
3C70
1CE0
1FE0
0FC0
0780
0780
0FC0
1DE0
1CE0
38F0
7078
0000
0000
0000
0000
0000
ENDCHAR
STARTCHAR U+0079
ENCODING 121
SWIDTH 583 0
DWIDTH 14 0
BBX 14 25 0 -5
BITMAP
0000
0000
0000
0000
0000
0000
0000
0000
7038
3870
3870
3870
1CE0
1CE0
0EC0
0FC0
0FC0
0780
0780
0380
0700
0700
7E00
FE00
7C00
ENDCHAR
STARTCHAR U+007A
ENCODING 122
SWIDTH 583 0
DWIDTH 14 0
BBX 14 25 0 -5
BITMAP
0000
0000
0000
0000
0000
0000
0000
0000
3FF0
3FF0
3FF0
01E0
03C0
0380
0700
0F00
1E00
3FF0
3FF0
3FF0
0000
0000
0000
0000
0000
ENDCHAR
STARTCHAR U+007B
ENCODING 123
SWIDTH 583 0
DWIDTH 14 0
BBX 14 25 0 -5
BITMAP
0000
0000
0000
01F0
03F0
07F0
0700
0700
0700
0700
0700
0700
3E00
3C00
3E00
0700
0700
0700
0700
0700
0700
0700
03F0
03F0
01F0
ENDCHAR
STARTCHAR U+007C
ENCODING 124
SWIDTH 583 0
DWIDTH 14 0
BBX 14 25 0 -5
BITMAP
0000
0300
0300
0300
0300
0300
0300
0300
0300
0300
0300
0300
0300
0300
0300
0300
0300
0300
0300
0300
0300
0300
0300
0300
0300
ENDCHAR
STARTCHAR U+007D
ENCODING 125
SWIDTH 583 0
DWIDTH 14 0
BBX 14 25 0 -5
BITMAP
0000
0000
0000
3E00
3F00
3F00
0380
0380
0380
0300
0300
0380
01F0
00F0
01F0
0380
0380
0300
0380
0380
0380
0380
3F00
3F00
3E00
ENDCHAR
STARTCHAR U+007E
ENCODING 126
SWIDTH 583 0
DWIDTH 14 0
BBX 14 25 0 -5
BITMAP
0000
0000
0000
0000
0000
0000
0000
0000
0000
0000
0C18
3E38
3F38
77F0
63F0
60E0
0000
0000
0000
0000
0000
0000
0000
0000
0000
ENDCHAR
STARTCHAR U+00AC
ENCODING 172
SWIDTH 583 0
DWIDTH 14 0
BBX 14 25 0 -5
BITMAP
0000
0000
0000
0000
0000
0000
0000
0000
0000
0000
7FF0
7FF0
7FF0
0030
0030
0030
0030
0030
0000
0000
0000
0000
0000
0000
0000
ENDCHAR
STARTCHAR U+00B6
ENCODING 182
SWIDTH 583 0
DWIDTH 14 0
BBX 14 25 0 -5
BITMAP
0000
0000
0000
0000
1FF0
3FF0
7FF0
7F30
7F30
7F30
7F30
7F30
3F30
0F30
0330
0330
0330
0330
0330
0330
0330
0330
0330
0000
0000
ENDCHAR
ENDFONT
